<svg id="Layer_1" data-name="Layer 1" xmlns="http://www.w3.org/2000/svg" viewBox="0 0 432 112"><defs><style>.cls-1{fill:#edeced;}.cls-2{fill:#6cbd4b;}.cls-3{fill:#a6d38e;}.cls-4{fill:#a4daf1;}.cls-5{fill:#00b1e2;}.cls-6{fill:#231f20;}</style></defs><title>Compass Pointe Logo</title><polygon class="cls-1" points="349.88 81.07 339.39 63.63 217.16 63.63 215.41 63.63 93.44 63.63 82.69 81.51 82.69 81.51 93.18 98.95 215.41 98.95 217.16 98.95 339.12 98.95 349.88 81.07 349.88 81.07"/><polygon class="cls-2" points="344.64 63.34 392.11 81.29 344.64 99.24 355.44 81.29 344.64 63.34"/><polygon class="cls-3" points="392.11 81.29 344.64 63.34 355.44 81.29 392.11 81.29"/><polygon class="cls-4" points="87.93 99.24 40.46 81.29 87.93 63.34 77.13 81.29 87.93 99.24"/><polygon class="cls-5" points="40.46 81.29 87.93 99.24 77.13 81.29 40.46 81.29"/><path class="cls-6" d="M118.82,72.45a.38.38,0,0,1,.38-.37h8a.38.38,0,0,1,.38.37v1.12a.38.38,0,0,1-.38.38h-6.29V78h5.32a.38.38,0,0,1,.37.38V79.5a.37.37,0,0,1-.37.38h-5.32v4.28h6.29a.38.38,0,0,1,.38.38v1.09a.38.38,0,0,1-.38.38h-8a.38.38,0,0,1-.38-.38Z"/><path class="cls-6" d="M131.58,82l-2.51-3.36a.31.31,0,0,1,.24-.54h1.29a.58.58,0,0,1,.48.22l1.6,2.29h0l1.63-2.29a.54.54,0,0,1,.46-.22h1.31c.34,0,.44.26.24.52l-2.51,3.36,2.53,3.56c.18.26.08.52-.24.52h-1.26a.54.54,0,0,1-.41-.24L132.7,83.3h0l-1.8,2.55a.38.38,0,0,1-.31.16h-1.34c-.34,0-.42-.26-.24-.52Z"/><path class="cls-6" d="M140.18,91.6a.37.37,0,0,1-.42.38h-1.11a.39.39,0,0,1-.38-.38V78.43a.39.39,0,0,1,.38-.38h.59c.16,0,.26.08.34.26l.2.51a3.39,3.39,0,0,1,2.43-1,4.18,4.18,0,1,1-2,7.82Zm1.71-7.1a2.33,2.33,0,0,0,2.27-2.45A2.27,2.27,0,0,0,142,79.58a2,2,0,0,0-1.83,1.16v3.18A3,3,0,0,0,141.89,84.5Z"/><path class="cls-6" d="M148,72.45a.39.39,0,0,1,.38-.37h1.13a.39.39,0,0,1,.38.37V85.63a.39.39,0,0,1-.38.38H148.4a.39.39,0,0,1-.38-.38Z"/><path class="cls-6" d="M155.92,77.85a4.18,4.18,0,1,1-4,4.16A4.12,4.12,0,0,1,155.92,77.85Zm0,6.65A2.37,2.37,0,0,0,158.17,82a2.26,2.26,0,1,0-4.5,0A2.38,2.38,0,0,0,155.92,84.5Z"/><path class="cls-6" d="M161.94,78.43a.38.38,0,0,1,.37-.38h.58a.38.38,0,0,1,.34.28l.22.67a2.83,2.83,0,0,1,2.33-1.15c.75,0,1.67.2,1.45.74l-.48,1a.34.34,0,0,1-.48.18,1.73,1.73,0,0,0-.67-.14,2.08,2.08,0,0,0-1.79,1v5c0,.34-.22.38-.54.38h-1a.38.38,0,0,1-.37-.38Z"/><path class="cls-6" d="M172,77.85a3.58,3.58,0,0,1,3.66,3.68,4.9,4.9,0,0,1,0,.54.37.37,0,0,1-.36.34h-5.41a2.31,2.31,0,0,0,2.29,2.13,3.41,3.41,0,0,0,1.77-.58c.24-.14.38-.22.54,0l.55.76c.14.16.2.31,0,.51a4.53,4.53,0,0,1-2.94,1,4.18,4.18,0,0,1,0-8.36Zm1.81,3.3A1.89,1.89,0,0,0,172,79.38a2,2,0,0,0-2,1.77Z"/><path class="cls-6" d="M184.53,81a5.73,5.73,0,0,1,1.57.24c0-1.25-.22-1.75-1.23-1.75a8.33,8.33,0,0,0-2.23.36c-.24.06-.38-.1-.44-.32l-.16-.74a.35.35,0,0,1,.26-.45,8.14,8.14,0,0,1,2.74-.46c2.55,0,2.79,1.55,2.79,3.54v4.24a.39.39,0,0,1-.38.38h-.55c-.18,0-.26-.08-.34-.28l-.2-.54a3.44,3.44,0,0,1-2.45,1,2.48,2.48,0,0,1-2.57-2.67C181.34,82.09,182.5,81,184.53,81Zm-.24,3.83a2.36,2.36,0,0,0,1.79-1V82.53a3,3,0,0,0-1.39-.32c-1,0-1.62.5-1.62,1.31A1.2,1.2,0,0,0,184.29,84.8Z"/><path class="cls-6" d="M190.34,72.45a.39.39,0,0,1,.38-.37h1.13a.39.39,0,0,1,.38.37V85.63a.39.39,0,0,1-.38.38h-1.13a.39.39,0,0,1-.38-.38Z"/><path class="cls-6" d="M194.82,72.45a.39.39,0,0,1,.38-.37h1.13a.39.39,0,0,1,.38.37V85.63a.39.39,0,0,1-.38.38H195.2a.39.39,0,0,1-.38-.38Z"/><path class="cls-6" d="M204.19,79.7h-.83a.38.38,0,0,1-.38-.38v-.89a.37.37,0,0,1,.38-.38h.83V75.84a.39.39,0,0,1,.38-.38l1.14,0a.37.37,0,0,1,.35.38v2.23h2a.37.37,0,0,1,.38.38v.89a.38.38,0,0,1-.38.38h-2v3.94c0,.68.26.8.64.8a3.26,3.26,0,0,0,1.22-.36c.25-.12.37,0,.45.18l.36.87a.33.33,0,0,1-.18.48,6.07,6.07,0,0,1-2.33.6c-1.57,0-2-1-2-2.37Z"/><path class="cls-6" d="M210.56,72.45a.39.39,0,0,1,.38-.37h1.15a.39.39,0,0,1,.38.37V78.7a4.2,4.2,0,0,1,2.39-.85c2.25,0,3.33,1.61,3.33,3.78v4a.39.39,0,0,1-.38.38h-1.12a.38.38,0,0,1-.38-.38v-4c0-1.29-.65-2-1.69-2a2.48,2.48,0,0,0-2.15,1.25v4.8a.36.36,0,0,1-.39.38h-1.14a.39.39,0,0,1-.38-.38Z"/><path class="cls-6" d="M223.28,81a5.64,5.64,0,0,1,1.57.24c0-1.25-.21-1.75-1.23-1.75a8.41,8.41,0,0,0-2.23.36c-.24.06-.38-.1-.44-.32l-.16-.74a.35.35,0,0,1,.26-.45,8.23,8.23,0,0,1,2.75-.46c2.55,0,2.79,1.55,2.79,3.54v4.24a.39.39,0,0,1-.38.38h-.56c-.18,0-.26-.08-.34-.28l-.2-.54a3.42,3.42,0,0,1-2.45,1,2.47,2.47,0,0,1-2.56-2.67C220.1,82.09,221.25,81,223.28,81ZM223,84.8a2.33,2.33,0,0,0,1.79-1V82.53a3,3,0,0,0-1.39-.32c-.95,0-1.61.5-1.61,1.31A1.2,1.2,0,0,0,223,84.8Z"/><path class="cls-6" d="M229.61,79.7h-.83a.38.38,0,0,1-.38-.38v-.89a.37.37,0,0,1,.38-.38h.83V75.84a.39.39,0,0,1,.38-.38l1.13,0a.38.38,0,0,1,.36.38v2.23h2a.37.37,0,0,1,.38.38v.89a.38.38,0,0,1-.38.38h-2v3.94c0,.68.26.8.64.8a3.2,3.2,0,0,0,1.21-.36.3.3,0,0,1,.46.18l.36.87a.33.33,0,0,1-.18.48,6.07,6.07,0,0,1-2.33.6c-1.57,0-2-1-2-2.37Z"/><path class="cls-6" d="M235.46,77.21c-.12-.12-.08-.32.08-.48a3.26,3.26,0,0,0,1.3-2.46,1.32,1.32,0,0,1-.42.06,1.23,1.23,0,1,1,0-2.45c.68,0,1.49.42,1.49,2a5.09,5.09,0,0,1-1.73,3.64c-.18.16-.34.16-.48,0Z"/><path class="cls-6" d="M239.31,85l.41-.77a.34.34,0,0,1,.5-.1,4.13,4.13,0,0,0,1.85.52c.6,0,1-.24,1-.68s-.44-.8-1.54-1.29-2.26-1.3-2.26-2.61c0-1,.81-2.19,2.72-2.19a4.44,4.44,0,0,1,2.35.62.43.43,0,0,1,.16.57l-.36.68a.42.42,0,0,1-.52.16,4.49,4.49,0,0,0-1.63-.42c-.67,0-.89.3-.89.6,0,.52.49.73,1.27,1.07,1.45.64,2.65,1.26,2.65,2.75,0,1.23-1.18,2.33-2.95,2.33a4.18,4.18,0,0,1-2.63-.82A.35.35,0,0,1,239.31,85Z"/><path class="cls-6" d="M253.2,91.6a.37.37,0,0,1-.42.38h-1.11a.39.39,0,0,1-.38-.38V78.43a.39.39,0,0,1,.38-.38h.59c.16,0,.26.08.34.26l.2.51a3.39,3.39,0,0,1,2.43-1,4.18,4.18,0,1,1-2,7.82Zm1.71-7.1a2.33,2.33,0,0,0,2.27-2.45A2.27,2.27,0,0,0,255,79.58a2,2,0,0,0-1.83,1.16v3.18A3,3,0,0,0,254.91,84.5Z"/><path class="cls-6" d="M264.46,77.85a4.18,4.18,0,1,1-4,4.16A4.12,4.12,0,0,1,264.46,77.85Zm0,6.65A2.37,2.37,0,0,0,266.71,82a2.25,2.25,0,1,0-4.49,0A2.37,2.37,0,0,0,264.46,84.5Z"/><path class="cls-6" d="M270,85l.42-.77a.33.33,0,0,1,.49-.1,4.14,4.14,0,0,0,1.86.52c.59,0,1-.24,1-.68s-.44-.8-1.53-1.29-2.27-1.3-2.27-2.61c0-1,.81-2.19,2.73-2.19a4.4,4.4,0,0,1,2.34.62.43.43,0,0,1,.16.57l-.35.68a.42.42,0,0,1-.52.16,4.56,4.56,0,0,0-1.63-.42c-.68,0-.9.3-.9.6,0,.52.5.73,1.27,1.07,1.46.64,2.65,1.26,2.65,2.75,0,1.23-1.17,2.33-2.94,2.33a4.16,4.16,0,0,1-2.63-.82A.34.34,0,0,1,270,85Z"/><path class="cls-6" d="M277.12,85l.42-.77a.34.34,0,0,1,.5-.1,4.13,4.13,0,0,0,1.85.52c.6,0,1-.24,1-.68s-.44-.8-1.54-1.29-2.27-1.3-2.27-2.61c0-1,.82-2.19,2.73-2.19a4.44,4.44,0,0,1,2.35.62.43.43,0,0,1,.16.57l-.36.68a.42.42,0,0,1-.52.16,4.49,4.49,0,0,0-1.63-.42c-.68,0-.89.3-.89.6,0,.52.49.73,1.27,1.07,1.45.64,2.65,1.26,2.65,2.75,0,1.23-1.18,2.33-2.95,2.33a4.18,4.18,0,0,1-2.63-.82A.34.34,0,0,1,277.12,85Z"/><path class="cls-6" d="M284.51,73.65a1.15,1.15,0,0,1,1.13-1.18,1.17,1.17,0,0,1,1.18,1.18,1.16,1.16,0,0,1-1.18,1.15A1.13,1.13,0,0,1,284.51,73.65Zm.22,4.78a.39.39,0,0,1,.38-.38h1.13a.39.39,0,0,1,.38.38v7.2a.39.39,0,0,1-.38.38h-1.13a.39.39,0,0,1-.38-.38Z"/><path class="cls-6" d="M289.21,72.45a.38.38,0,0,1,.37-.37h1.16a.39.39,0,0,1,.38.37v5.84a4.75,4.75,0,0,1,1.91-.44A4,4,0,0,1,297,82a4,4,0,0,1-3.72,4.18,3.54,3.54,0,0,1-2.53-1.12l-.16.58c-.06.2-.18.34-.36.34h-.6a.38.38,0,0,1-.37-.38Zm3.78,12A2.26,2.26,0,0,0,295.1,82a2.32,2.32,0,0,0-2.27-2.45,3.36,3.36,0,0,0-1.73.46V83.3A2.13,2.13,0,0,0,293,84.5Z"/><path class="cls-6" d="M299,72.45a.39.39,0,0,1,.38-.37h1.13a.39.39,0,0,1,.38.37V85.63a.39.39,0,0,1-.38.38h-1.13a.39.39,0,0,1-.38-.38Z"/><path class="cls-6" d="M306.84,77.85a3.58,3.58,0,0,1,3.66,3.68,4.9,4.9,0,0,1,0,.54.36.36,0,0,1-.35.34h-5.42A2.31,2.31,0,0,0,307,84.54a3.37,3.37,0,0,0,1.77-.58c.24-.14.38-.22.54,0l.56.76c.14.16.2.31,0,.51a4.57,4.57,0,0,1-2.95,1,4.18,4.18,0,0,1,0-8.36Zm1.81,3.3a1.88,1.88,0,0,0-1.83-1.77,2,2,0,0,0-2,1.77Z"/><path class="cls-6" d="M313.39,83.44a1.39,1.39,0,1,1-1.37,1.4A1.38,1.38,0,0,1,313.39,83.44Z"/><path class="cls-5" d="M16.57,12.76a12,12,0,0,1,8.6,3.31.66.66,0,0,1,0,1L23,19.3a.58.58,0,0,1-.89,0,8.37,8.37,0,0,0-5.47-2.1,8.06,8.06,0,0,0-7.93,8.28,8.05,8.05,0,0,0,8,8.21,8.56,8.56,0,0,0,5.44-2,.65.65,0,0,1,.89,0l2.2,2.27a.67.67,0,0,1,0,1,12.23,12.23,0,0,1-8.64,3.45,12.8,12.8,0,1,1,0-25.59Z"/><path class="cls-5" d="M40.74,12.76A12.8,12.8,0,1,1,28,25.59,12.77,12.77,0,0,1,40.74,12.76Zm0,21a8.18,8.18,0,1,0-8.14-8.14A8.19,8.19,0,0,0,40.74,33.73Z"/><path class="cls-5" d="M60.78,13.29a.6.6,0,0,1,.64-.53H62a.63.63,0,0,1,.6.36l7.82,16.77h.11l7.81-16.77a.62.62,0,0,1,.61-.36h.57a.6.6,0,0,1,.64.53l4.19,23.88a.62.62,0,0,1-.64.82H80.47a.77.77,0,0,1-.68-.53L77.69,24h-.1L71.37,38a.61.61,0,0,1-.61.4h-.63a.65.65,0,0,1-.61-.4L63.23,24h-.11L61.06,37.46a.68.68,0,0,1-.64.53H57.23a.65.65,0,0,1-.68-.82Z"/><path class="cls-5" d="M89.21,13.79a.67.67,0,0,1,.67-.67h8.35a7.92,7.92,0,1,1,0,15.84H93.83v8.36a.7.7,0,0,1-.68.67H89.88a.67.67,0,0,1-.67-.67ZM98,24.63a3.66,3.66,0,0,0,3.66-3.7A3.54,3.54,0,0,0,98,17.49H93.83v7.14Z"/><path class="cls-5" d="M105.63,37.07l11.05-23.92a.63.63,0,0,1,.6-.39h.36a.61.61,0,0,1,.6.39l11,23.92a.63.63,0,0,1-.61.92h-3.09a1,1,0,0,1-1-.71l-1.74-3.84H112.09l-1.74,3.84a1.06,1.06,0,0,1-1,.71h-3.09A.62.62,0,0,1,105.63,37.07ZM121,29.5l-3.56-7.82h-.1l-3.48,7.82Z"/><path class="cls-5" d="M131,34.51l1.28-2.21a.83.83,0,0,1,1.21-.24c.18.1,3.06,2.2,5.37,2.2a3,3,0,0,0,3.23-2.74c0-1.81-1.53-3.05-4.51-4.26-3.34-1.35-6.68-3.48-6.68-7.68,0-3.16,2.34-6.82,8-6.82A12.53,12.53,0,0,1,146,15.14a.88.88,0,0,1,.21,1.17l-1.35,2a.93.93,0,0,1-1.24.43c-.29-.18-3-2-4.94-2s-3.13,1.35-3.13,2.49c0,1.67,1.32,2.81,4.2,4,3.44,1.38,7.42,3.45,7.42,8,0,3.66-3.16,7-8.17,7a11.4,11.4,0,0,1-7.82-2.78C130.82,35.25,130.64,35.08,131,34.51Z"/><path class="cls-5" d="M150.22,34.51l1.28-2.21a.83.83,0,0,1,1.21-.24c.18.1,3.06,2.2,5.37,2.2a3,3,0,0,0,3.23-2.74c0-1.81-1.53-3.05-4.51-4.26-3.34-1.35-6.68-3.48-6.68-7.68,0-3.16,2.34-6.82,8-6.82a12.53,12.53,0,0,1,7.11,2.38.87.87,0,0,1,.21,1.17l-1.35,2a.93.93,0,0,1-1.24.43c-.29-.18-3-2-4.94-2s-3.13,1.35-3.13,2.49c0,1.67,1.32,2.81,4.2,4,3.44,1.38,7.42,3.45,7.42,8,0,3.66-3.16,7-8.17,7a11.4,11.4,0,0,1-7.82-2.78C150.08,35.25,149.9,35.08,150.22,34.51Z"/><path class="cls-5" d="M182.35,13.79a.67.67,0,0,1,.67-.67h8.35a7.92,7.92,0,1,1,0,15.84H187v8.36a.7.7,0,0,1-.68.67H183a.67.67,0,0,1-.67-.67Zm8.74,10.84a3.66,3.66,0,0,0,3.66-3.7,3.54,3.54,0,0,0-3.66-3.44H187v7.14Z"/><path class="cls-5" d="M214.37,12.76a12.8,12.8,0,1,1-12.76,12.83A12.77,12.77,0,0,1,214.37,12.76Zm0,21a8.18,8.18,0,1,0-8.14-8.14A8.19,8.19,0,0,0,214.37,33.73Z"/><path class="cls-5" d="M231.81,13.79a.7.7,0,0,1,.68-.67h3.3a.7.7,0,0,1,.68.67V37.32a.7.7,0,0,1-.68.67h-3.3a.7.7,0,0,1-.68-.67Z"/><path class="cls-5" d="M242.94,13.4a.66.66,0,0,1,.67-.64h.89l14.78,15.71h0V13.79a.67.67,0,0,1,.67-.67h3.27a.7.7,0,0,1,.68.67V37.71a.67.67,0,0,1-.68.64h-.85L247.56,22h0V37.32a.67.67,0,0,1-.67.67h-3.24a.7.7,0,0,1-.67-.67Z"/><path class="cls-5" d="M273.75,17.38h-5.44a.68.68,0,0,1-.68-.67V13.79a.68.68,0,0,1,.68-.67h15.53a.67.67,0,0,1,.67.67v2.92a.67.67,0,0,1-.67.67H278.4V37.32a.7.7,0,0,1-.67.67h-3.31a.7.7,0,0,1-.67-.67Z"/><path class="cls-5" d="M288.21,13.79a.67.67,0,0,1,.68-.67h14.46a.67.67,0,0,1,.67.67v2.92a.67.67,0,0,1-.67.67H292.83v5.83h8.78a.7.7,0,0,1,.67.67v2.95a.68.68,0,0,1-.67.68h-8.78v6.22h10.52a.67.67,0,0,1,.67.67v2.92a.67.67,0,0,1-.67.67H288.89a.67.67,0,0,1-.68-.67Z"/><path class="cls-2" d="M317,13.79a.67.67,0,0,1,.67-.67h3.27a.7.7,0,0,1,.68.67V33.73h9.06a.67.67,0,0,1,.67.67v2.92a.67.67,0,0,1-.67.67h-13a.67.67,0,0,1-.67-.67Z"/><path class="cls-2" d="M334.9,13.79a.7.7,0,0,1,.68-.67h3.3a.7.7,0,0,1,.68.67V37.32a.7.7,0,0,1-.68.67h-3.3a.7.7,0,0,1-.68-.67Z"/><path class="cls-2" d="M342.79,14a.63.63,0,0,1,.61-.92H347a.67.67,0,0,1,.61.39l6.82,15.28h.25l6.82-15.28a.64.64,0,0,1,.6-.39h3.63a.62.62,0,0,1,.6.92L355.34,38a.65.65,0,0,1-.61.4h-.35a.65.65,0,0,1-.61-.4Z"/><path class="cls-2" d="M369.59,13.79a.7.7,0,0,1,.67-.67h3.31a.7.7,0,0,1,.67.67V37.32a.7.7,0,0,1-.67.67h-3.31a.7.7,0,0,1-.67-.67Z"/><path class="cls-2" d="M380.71,13.4a.66.66,0,0,1,.67-.64h.89l14.78,15.71h0V13.79a.67.67,0,0,1,.68-.67H401a.7.7,0,0,1,.68.67V37.71a.67.67,0,0,1-.68.64h-.85L385.33,22h0V37.32a.67.67,0,0,1-.67.67h-3.24a.7.7,0,0,1-.67-.67Z"/><path class="cls-2" d="M419.16,12.76a13.39,13.39,0,0,1,8.67,3.31.68.68,0,0,1,0,1l-2.2,2.31a.61.61,0,0,1-.92,0,8.06,8.06,0,0,0-5.37-2.06,8.19,8.19,0,0,0,0,16.38,11,11,0,0,0,4.23-.89v-3h-2.85a.64.64,0,0,1-.67-.64V26.33a.65.65,0,0,1,.67-.67h6.83a.67.67,0,0,1,.64.67v9.1A.69.69,0,0,1,428,36a18,18,0,0,1-8.81,2.31,12.78,12.78,0,0,1,0-25.55Z"/></svg>