<svg id="Layer_1" data-name="Layer 1" xmlns="http://www.w3.org/2000/svg" viewBox="0 0 800 990"><defs><style>.cls-1,.cls-2{fill:none;stroke-miterlimit:10;stroke-width:11.3px;}.cls-1{stroke:#77c4dc;}.cls-2{stroke:#a7d793;}.cls-3{fill:#a7d793;}</style></defs><title>Crane-graphic</title><path class="cls-1" d="M124.5,408.44a27.28,27.28,0,1,0,27.28-27.28V350.57"/><rect class="cls-2" x="123.62" y="192.77" width="52.92" height="106.74" rx="2.65"/><path class="cls-2" d="M19.22,502.73,144.31,437.3a16.14,16.14,0,0,1,14.93,0l125.1,65.43"/><rect class="cls-1" x="16.9" y="502.73" width="269.75" height="173.53" rx="4.05"/><path class="cls-1" d="M546.34,133.72H97.56a2.38,2.38,0,0,0-2.37,2.38v54.29a2.38,2.38,0,0,0,2.37,2.38H546.34Z"/><path class="cls-1" d="M780.72,133.72H640.87v59.05H780.72a2.38,2.38,0,0,0,2.38-2.38V136.1A2.38,2.38,0,0,0,780.72,133.72Z"/><line class="cls-1" x1="372.99" y1="133.72" x2="571.55" y2="23.19"/><line class="cls-1" x1="724.17" y1="133.72" x2="643.35" y2="56.35"/><path class="cls-1" d="M150.26,349.94l-46.77-46.77a2.14,2.14,0,0,1,1.51-3.66h93.55a2.14,2.14,0,0,1,1.51,3.66l-46.77,46.77A2.14,2.14,0,0,1,150.26,349.94Z"/><path class="cls-3" d="M117.09,557.47v20.31L76,593.14l41.13,15.36v20.3L57.22,604.72V581.55Z"/><path class="cls-3" d="M163.82,530.27h24.47L145.46,648.72H121Z"/><path class="cls-3" d="M186.46,627.5V607.19l41.13-15.35-41.13-15.36V556.17l59.88,24.08v23.17Z"/><path class="cls-2" d="M568.59,25.23,546.41,119.1a2.54,2.54,0,0,0-.07.61v880.64A2.65,2.65,0,0,0,549,1003h89.23a2.65,2.65,0,0,0,2.65-2.65V25.84a2.65,2.65,0,0,0-2.65-2.65H571.17A2.64,2.64,0,0,0,568.59,25.23Z"/><path class="cls-2" d="M559.17,1003l80.37-70.17a2.92,2.92,0,0,0,0-4.14l-91-91a3,3,0,0,1,0-4.15l90.85-90.85a3,3,0,0,0,0-4.15l-92.27-92.27a2.93,2.93,0,0,1,0-4.15l93-93a3,3,0,0,0,0-4.15l-92.5-92.5a2.93,2.93,0,0,1,0-4.15l91.5-91.5a2.93,2.93,0,0,0,0-4.14l-90.52-90.52a3,3,0,0,1,0-4.15l91-91a2.93,2.93,0,0,0,0-4.15L558.35,81.61"/></svg>