<svg xmlns="http://www.w3.org/2000/svg" viewBox="0 0 442.8733 453.2879">
  <title>equal-housing_lender-logo-full-color-rgb</title>
  <g id="full-rgb">
    <g>
      <rect id="fullLogo" x="147.2846" y="212.2061" width="149.0796" height="39.1149"/>
      <rect id="fullLogo-2" data-name="fullLogo" x="147.2846" y="153.9542" width="149.0796" height="39.1149"/>
      <path id="fullLogo-3" data-name="fullLogo" d="M223.9322,0,0,127.4406v46.0538H34.308V331.8473H407.9417V173.4944h34.9316V128.7015ZM364.89,291.5113H79.83V132.5272L223.918,47.9893,364.89,132.5272Z" style="fill-rule: evenodd"/>
      <path id="fullLogo-4" data-name="fullLogo" d="M254.667,403.4472h-26.2v49.8407h25.575c20.5844,0,32.4366-4.416,32.4366-23.9741C286.4785,409.1261,273.3786,403.4472,254.667,403.4472Zm-1.2585,39.0951H242.1814v-28.39h12.4751c8.7322,0,16.8417,5.0472,16.8417,15.1415C271.4982,440.6491,264.013,442.5423,253.4085,442.5423Z" style="fill-rule: evenodd"/>
      <path id="fullLogo-5" data-name="fullLogo" d="M406.9789,432.4692c9.3567-1.262,13.7235-5.0479,13.7235-13.25,0-11.3556-5.614-15.7724-19.3366-15.7724H365.1872v49.8407H378.91V432.4692h13.1l14.3455,20.8187h14.9713Zm-8.1713-10.6717H378.8463v-7.57h20.5846c5.6146,0,8.1088.631,8.1088,3.7842C407.54,421.7975,405.67,421.7975,398.8076,421.7975Z" style="fill-rule: evenodd"/>
      <polygon id="fullLogo-6" data-name="fullLogo" points="153.263 403.447 153.263 453.288 166.361 453.288 166.361 423.005 192.56 453.288 208.154 453.288 208.154 403.447 195.055 403.447 195.055 434.36 168.857 403.447 153.263 403.447 153.263 403.447" style="fill-rule: evenodd"/>
      <polygon id="fullLogo-7" data-name="fullLogo" points="24.66 403.447 24.66 453.288 73.937 453.288 73.937 442.563 38.383 441.932 38.383 403.447 24.66 403.447 24.66 403.447" style="fill-rule: evenodd"/>
      <polygon id="fullLogo-8" data-name="fullLogo" points="88.047 453.288 136.077 453.288 136.077 442.563 102.393 442.563 102.393 431.838 130.464 431.838 130.464 421.744 102.393 421.744 102.393 414.173 136.077 414.173 136.077 403.447 88.047 403.447 88.047 453.288 88.047 453.288" style="fill-rule: evenodd"/>
      <polygon id="fullLogo-9" data-name="fullLogo" points="301.831 403.447 301.831 453.288 349.237 452.657 349.237 442.563 315.554 442.563 315.554 431.838 344.248 431.838 344.248 421.744 315.554 421.744 315.554 414.173 349.237 414.173 349.237 403.447 301.831 403.447 301.831 403.447" style="fill-rule: evenodd"/>
      <path id="fullLogo-10" data-name="fullLogo" d="M145.5026,346.3849H134.8974l-12.4758,44.7929h9.0921l2.76-10.0943h11.2288l2.76,10.0943h9.7149Zm-9.3075,27.25,3.7433-17.6656,4.3661,17.6656Z" style="fill-rule: evenodd"/>
      <path id="fullLogo-11" data-name="fullLogo" d="M80.3185,384.8807c1.8714-3.7849,2.4949-6.3093,2.4949-11.9867V363.43c0-10.7246-2.4949-18.296-14.9706-18.296-11.2271,0-14.97,6.31-14.97,17.6641v11.9883c0,15.1413,8.7323,15.7716,34.3071,15.7716l.6236-3.1545ZM73.42,374.7728c0,8.2018-.6235,10.0934-5.6141,10.0934-4.3661,0-5.6139-2.5227-5.6139-10.7244V363.4172c0-8.2018.6235-10.7253,6.2375-10.7253,4.367,0,4.99,1.2613,4.99,10.0943Z" style="fill-rule: evenodd"/>
      <path id="fullLogo-12" data-name="fullLogo" d="M307.3805,379.1881c0,6.9395,4.3669,12.6171,14.3471,12.6171,8.1079,0,15.5939-5.6776,15.5939-12.6171,0-10.7254-19.96-15.7724-19.96-22.7128,0-2.5235,2.4948-3.7849,4.99-3.7849,3.7434,0,5.6124,2.5242,7.4845,6.3084l6.2389-2.5235c-.625-6.3077-4.99-11.3555-14.3468-11.3555-7.4854,0-13.7229,3.7848-13.7229,11.3555,0,12.6178,19.9587,15.7724,19.9587,23.9734,0,3.1554-1.869,4.4175-5.6124,4.4175-3.7418,0-6.2367-2.5242-7.4852-6.94l-7.4853,1.2622Z" style="fill-rule: evenodd"/>
      <path id="fullLogo-13" data-name="fullLogo" d="M254.7238,345.12c-9.3568,0-14.9706,5.0478-14.9706,17.0337v14.51c0,10.7263,3.12,15.1415,14.9706,15.1415s14.97-5.0463,14.97-17.0338v-13.88C269.6934,349.5357,266.5757,345.12,254.7238,345.12Zm5.59,29.6545c0,7.5707-1.8716,10.0943-5.6148,10.0943-4.989,0-5.6138-3.1547-5.6138-9.4632V361.5262c0-5.6781.6248-9.464,5.6138-9.464s5.6148,4.4169,5.6148,9.464Z" style="fill-rule: evenodd"/>
      <path id="fullLogo-14" data-name="fullLogo" d="M390.77,374.7713c0,13.2481,3.7426,17.0339,16.2183,17.0339,9.6573,0,12.4748-4.5794,12.4748-9.4632V367.8332H406.3637v6.9381H410.73v5.0479c0,3.7849-1.247,5.6782-4.3662,5.6782-6.2375,0-6.8616-4.4168-6.8616-10.7261V364.6771c0-7.5708.6241-12.6179,6.8616-12.6179,4.3662,0,6.86,3.1554,7.4854,7.5707l6.2366-2.5236c-.6228-7.5706-5.6124-11.9865-14.3462-11.9865-12.4749,0-14.97,6.9394-14.97,16.4026v13.2489Z" style="fill-rule: evenodd"/>
      <path id="fullLogo-15" data-name="fullLogo" d="M273.5932,346.3765v25.8659c0,15.1422,2.5674,19.983,15.6666,19.983,9.98,0,13.651-5.4719,13.651-18.7209v-27.128h-8.733v25.8659c0,10.0935-.6235,12.6178-5.6134,12.6178s-5.6146-3.7856-5.6146-13.2481V346.3765Z" style="fill-rule: evenodd"/>
      <polygon id="fullLogo-16" data-name="fullLogo" points="356.927 346.385 356.927 391.178 364.413 391.178 364.413 360.895 375.017 391.178 386.244 391.178 386.244 346.385 378.759 346.385 378.759 374.144 368.779 346.385 356.927 346.385 356.927 346.385" style="fill-rule: evenodd"/>
      <path id="fullLogo-17" data-name="fullLogo" d="M91.7838,346.3774v27.1271c0,12.6194,1.2477,18.2969,13.7227,18.2969,14.3463,0,14.97-6.94,14.97-19.5582V346.3774H111.744v26.4969c0,8.8328-1.2471,11.3564-5.6133,11.3564-4.99,0-5.6139-2.5236-5.6139-12.6178V346.3774Z" style="fill-rule: evenodd"/>
      <polygon id="fullLogo-18" data-name="fullLogo" points="205.23 346.385 205.23 391.178 213.962 391.178 213.962 370.99 224.566 370.99 224.566 391.178 233.298 391.178 233.298 346.385 224.566 346.385 224.566 363.419 213.962 363.419 213.962 346.385 205.23 346.385 205.23 346.385" style="fill-rule: evenodd"/>
      <polygon id="fullLogo-19" data-name="fullLogo" points="24.028 346.385 24.028 391.178 46.483 391.178 46.483 384.238 32.761 384.238 32.761 371.62 45.236 371.62 45.236 365.31 32.761 365.31 32.761 353.325 46.483 353.325 46.483 346.385 24.028 346.385 24.028 346.385" style="fill-rule: evenodd"/>
      <polygon id="fullLogo-20" data-name="fullLogo" points="161.934 346.385 161.934 391.178 182.518 391.178 182.518 384.238 169.418 384.238 169.418 346.385 161.934 346.385 161.934 346.385" style="fill-rule: evenodd"/>
      <polygon id="fullLogo-21" data-name="fullLogo" points="341.902 346.385 341.902 391.178 350.011 391.178 350.011 346.385 341.902 346.385 341.902 346.385" style="fill-rule: evenodd"/>
    </g>
  </g>
</svg>
