<svg id="Layer_1" data-name="Layer 1" xmlns="http://www.w3.org/2000/svg" xmlns:xlink="http://www.w3.org/1999/xlink" viewBox="0 0 112 112"><defs><style>.cls-1{fill:#fff;fill-rule:evenodd;}.cls-2{fill:#7ae057;}.cls-3{mask:url(#mask);}.cls-4{mask:url(#mask-2-2);}.cls-5{mask:url(#mask-3);}.cls-6{mask:url(#mask-4-2);}.cls-7{mask:url(#mask-5);}</style><mask id="mask" x="78.28" y="23" width="10.8" height="10.73" maskUnits="userSpaceOnUse"><g id="mask-2"><polygon id="path-1" class="cls-1" points="78.28 23 89.08 23 89.08 33.73 78.28 33.73 78.28 23"/></g></mask><mask id="mask-2-2" x="86" y="23" width="3" height="10" maskUnits="userSpaceOnUse"><g id="mask-4"><polygon id="path-3" class="cls-1" points="86 23 89 23 89 33 86 33 86 23"/></g></mask><mask id="mask-3" x="22" y="79.27" width="10.73" height="10.73" maskUnits="userSpaceOnUse"><g id="mask-6"><polygon id="path-5" class="cls-1" points="22 79.27 32.73 79.27 32.73 90 22 90 22 79.27"/></g></mask><mask id="mask-4-2" x="78.28" y="79.27" width="10.8" height="10.73" maskUnits="userSpaceOnUse"><g id="mask-8"><polygon id="path-7" class="cls-1" points="78.28 79.27 89.08 79.27 89.08 90 78.28 90 78.28 79.27"/></g></mask><mask id="mask-5" x="79" y="87" width="10" height="3" maskUnits="userSpaceOnUse"><g id="mask-10"><polygon id="path-9" class="cls-1" points="79 87 89 87 89 90 79 90 79 87"/></g></mask></defs><title>Fullfilling lifestlye</title><g id="Desktop"><g id="Desktop-HD"><g id="Supp-Living_info-panel" data-name="Supp-Living info-panel"><g id="icn_supported-living" data-name="icn supported-living"><circle id="Oval-2" class="cls-2" cx="56" cy="56" r="56"/><g id="Group-36"><path id="Fill-1" class="cls-1" d="M54.5,29.38A26.12,26.12,0,1,0,80.62,55.5,26.15,26.15,0,0,0,54.5,29.38M54.5,84A28.5,28.5,0,1,1,83,55.5,28.53,28.53,0,0,1,54.5,84"/><path id="Fill-3" class="cls-1" d="M55.5,61C50.24,61,46,54.36,46,48.86a1.19,1.19,0,1,1,2.38,0c0,4.24,3.45,9.71,7.12,9.71s7.12-5.47,7.12-9.71V45.21a1.19,1.19,0,1,1,2.38,0v3.65C65,54.36,60.76,61,55.5,61"/><path id="Fill-5" class="cls-1" d="M40.17,76A1.18,1.18,0,0,1,39,74.8,10.65,10.65,0,0,1,49.5,64h1.17V59.2a1.17,1.17,0,1,1,2.33,0v6a1.18,1.18,0,0,1-1.17,1.19H49.5a8.29,8.29,0,0,0-8.17,8.37A1.18,1.18,0,0,1,40.17,76"/><path id="Fill-7" class="cls-1" d="M70.83,76a1.18,1.18,0,0,1-1.16-1.2,8.29,8.29,0,0,0-8.17-8.37H59.17A1.18,1.18,0,0,1,58,65.24v-6a1.17,1.17,0,1,1,2.33,0V64H61.5A10.65,10.65,0,0,1,72,74.8,1.18,1.18,0,0,1,70.83,76"/><path id="Fill-9" class="cls-1" d="M55.5,76C50.44,76,46,71,46,65.23a1.19,1.19,0,1,1,2.38,0c0,3.92,3,8.31,7.12,8.31s7.12-4.39,7.12-8.31a1.19,1.19,0,1,1,2.38,0C65,71,60.56,76,55.5,76"/><path id="Fill-11" class="cls-1" d="M58.6,67a1.22,1.22,0,0,1-.38-2.37l6.38-2.15V45.14a9.6,9.6,0,1,0-19.2,0V62.48l6.38,2.15a1.22,1.22,0,0,1,.76,1.54,1.21,1.21,0,0,1-1.52.77l-7.2-2.43A1.22,1.22,0,0,1,43,63.36V45.14a12,12,0,1,1,24,0V63.36a1.22,1.22,0,0,1-.82,1.15L59,66.94a1.31,1.31,0,0,1-.38.06"/><path id="Fill-13" class="cls-1" d="M47.19,50a1.18,1.18,0,1,1,0-2.36c6.3-.09,8.34-9.6,8.36-9.69A1.19,1.19,0,0,1,56.62,37a1.14,1.14,0,0,1,1.2.8c2,5.88,5.92,6.27,6.08,6.29A1.19,1.19,0,0,1,65,45.36a1.14,1.14,0,0,1-1.26,1.09c-.19,0-4.12-.31-6.84-4.92-1.32,3.41-4.2,8.4-9.7,8.47Z"/><g id="Group-17"><g class="cls-3"><path id="Fill-15" class="cls-1" d="M79.48,33.73a1.2,1.2,0,0,1-.85-.35,1.19,1.19,0,0,1,0-1.69L85,25.38h-4.3a1.19,1.19,0,1,1,0-2.38h7.2a1.2,1.2,0,0,1,.85,2l-8.4,8.34a1.24,1.24,0,0,1-.85.35"/></g></g><g id="Group-20"><g class="cls-4"><path id="Fill-18" class="cls-1" d="M87.5,33A1.39,1.39,0,0,1,86,31.75v-7.5a1.53,1.53,0,0,1,3,0v7.5A1.39,1.39,0,0,1,87.5,33"/></g></g><path id="Fill-21" class="cls-1" d="M31.78,34a1.22,1.22,0,0,1-.87-.36l-6.47-6.47v4.39a1.22,1.22,0,0,1-2.44,0V24.22a1.22,1.22,0,0,1,2.09-.86l8.55,8.55A1.23,1.23,0,0,1,31.78,34"/><path id="Fill-23" class="cls-1" d="M30.75,26h-7.5a1.53,1.53,0,0,1,0-3h7.5a1.52,1.52,0,0,1,0,3"/><g id="Group-27"><g class="cls-5"><path id="Fill-25" class="cls-1" d="M30.34,90H23.19a1.2,1.2,0,0,1-.84-2l8.34-8.34a1.2,1.2,0,1,1,1.69,1.69l-6.31,6.31h4.27a1.19,1.19,0,1,1,0,2.38"/></g></g><path id="Fill-28" class="cls-1" d="M23.5,90A1.39,1.39,0,0,1,22,88.75v-7.5a1.52,1.52,0,0,1,3,0v7.5A1.39,1.39,0,0,1,23.5,90"/><g id="Group-32"><g class="cls-6"><path id="Fill-30" class="cls-1" d="M87.88,90a1.2,1.2,0,0,1-.85-.35l-8.4-8.34a1.19,1.19,0,0,1,0-1.69,1.22,1.22,0,0,1,1.7,0l6.35,6.31V81.66a1.2,1.2,0,0,1,2.4,0v7.15a1.2,1.2,0,0,1-.74,1.1,1.25,1.25,0,0,1-.46.09"/></g></g><g id="Group-35"><g class="cls-7"><path id="Fill-33" class="cls-1" d="M87.75,90h-7.5a1.53,1.53,0,0,1,0-3h7.5a1.52,1.52,0,0,1,0,3"/></g></g></g></g></g></g></g></svg>