<svg id="Layer_1" data-name="Layer 1" xmlns="http://www.w3.org/2000/svg" viewBox="0 0 112 112"><defs><style>.cls-1{fill:#fff;}</style></defs><title>Sign Up</title><path class="cls-1" d="M71.42,70.46a1.52,1.52,0,0,1,.64-1.29l6.43-6.42a1.6,1.6,0,0,1,2-.49A1.77,1.77,0,0,1,81.7,64V89.41A7.68,7.68,0,0,1,74,97.12H17.45a7.68,7.68,0,0,1-7.71-7.71V32.87a7.68,7.68,0,0,1,7.71-7.71H63.39a1.77,1.77,0,0,1,1.77,1.2,1.6,1.6,0,0,1-.49,2L58.25,35a1.74,1.74,0,0,1-1.29.48H20v51.4h51.4Zm3-42.25a1.53,1.53,0,0,0-1.12-.48,1.55,1.55,0,0,0-1.13.48L37.05,63.39,35.44,78.17A3.11,3.11,0,0,0,39,81.7l14.78-1.61L88.93,44.92a1.55,1.55,0,0,0,.48-1.13,1.53,1.53,0,0,0-.48-1.12Zm26-3.69A6.42,6.42,0,0,1,102.26,29a5.89,5.89,0,0,1-1.77,4.34l-5.78,5.78a1.54,1.54,0,0,1-2.25,0L78,24.68a1.54,1.54,0,0,1,0-2.25l5.78-5.78a5.89,5.89,0,0,1,4.34-1.77,6.42,6.42,0,0,1,4.49,1.77Z"/></svg>